<?xml version="1.0" encoding="iso-8859-1"?>
<!-- Generator: Adobe Illustrator 21.0.0, SVG Export Plug-In . SVG Version: 6.00 Build 0)  -->
<svg version="1.1" id="budget-money-bag-expense" xmlns="http://www.w3.org/2000/svg" xmlns:xlink="http://www.w3.org/1999/xlink"
	 x="0px" y="0px" viewBox="0 0 64 64" style="enable-background:new 0 0 64 64;" xml:space="preserve">
<path d="M0.804,7.98c2.641,0.528,4.688,2.575,5.216,5.216C6.113,13.664,6.523,14,7,14s0.887-0.336,0.98-0.804
	c0.528-2.641,2.575-4.688,5.216-5.216C13.663,7.887,14,7.477,14,7s-0.337-0.887-0.804-0.98C10.556,5.491,8.509,3.444,7.98,0.804
	C7.887,0.336,7.477,0,7,0S6.113,0.336,6.02,0.804C5.491,3.444,3.444,5.491,0.804,6.02C0.337,6.113,0,6.523,0,7
	S0.337,7.887,0.804,7.98z M7,3.813C7.761,5.14,8.86,6.239,10.187,7C8.86,7.761,7.761,8.86,7,10.187C6.239,8.86,5.14,7.761,3.813,7
	C5.14,6.239,6.239,5.14,7,3.813z"/>
<path d="M58,15c0-1.654-1.346-3-3-3h-4.184C50.928,11.686,51,11.352,51,11c0-0.551,0.448-1,1-1h8V8h-8c-1.654,0-3,1.346-3,3
	c0,0.551-0.448,1-1,1h-3.613l3.561-10.684c0.132-0.394,0.007-0.827-0.314-1.09c-0.319-0.263-0.771-0.299-1.13-0.095l-6.41,3.663
	l-4.469-3.575c-0.365-0.292-0.885-0.292-1.25,0l-4.469,3.575l-6.41-3.663c-0.358-0.205-0.809-0.168-1.13,0.095
	c-0.321,0.263-0.446,0.696-0.314,1.09l3.586,10.757C25.265,12.219,25,12.576,25,13v0.779C13.605,17.962,6,28.811,6,41v21H0v2h7h56
	c0.553,0,1-0.448,1-1V41c0-11.994-7.372-22.676-18.464-27H48h7c0.552,0,1,0.449,1,1c0,1.654,1.346,3,3,3h5v-2h-5
	C58.448,16,58,15.551,58,15z M29.504,5.868c0.355,0.204,0.801,0.169,1.121-0.087L35,2.281l4.375,3.5
	c0.32,0.255,0.766,0.291,1.121,0.087l4.728-2.701L42.279,12H27.721l-2.944-8.833L29.504,5.868z M62,41v21H8V41
	c0-11.573,7.362-21.847,18.321-25.566C26.728,15.296,27,14.915,27,14.487V14h16v0.487c0,0.428,0.272,0.809,0.679,0.947
	C54.638,19.153,62,29.427,62,41z"/>
<path d="M19,40c0,8.822,7.178,16,16,16s16-7.178,16-16s-7.178-16-16-16S19,31.178,19,40z M49,40c0,7.72-6.28,14-14,14
	s-14-6.28-14-14s6.28-14,14-14S49,32.28,49,40z"/>
<path d="M23,40c0,6.617,5.383,12,12,12s12-5.383,12-12s-5.383-12-12-12S23,33.383,23,40z M45,40c0,5.514-4.486,10-10,10
	s-10-4.486-10-10s4.486-10,10-10S45,34.486,45,40z"/>
<path d="M34,32v2h-0.5c-1.93,0-3.5,1.57-3.5,3.5s1.57,3.5,3.5,3.5H34v3h-3v2h3v2h2v-2h0.5c1.93,0,3.5-1.57,3.5-3.5S38.43,39,36.5,39
	H36v-3h3v-2h-3v-2H34z M36.5,41c0.827,0,1.5,0.673,1.5,1.5S37.327,44,36.5,44H36v-3H36.5z M34,39h-0.5c-0.827,0-1.5-0.673-1.5-1.5
	s0.673-1.5,1.5-1.5H34V39z"/>
<path d="M4,18c-1.654,0-3,1.346-3,3s1.346,3,3,3s3-1.346,3-3S5.654,18,4,18z M4,22c-0.552,0-1-0.449-1-1s0.448-1,1-1s1,0.449,1,1
	S4.552,22,4,22z"/>
<rect x="58" y="50" width="2" height="2"/>
<rect x="54" y="50" width="2" height="2"/>
<rect x="50" y="50" width="2" height="2"/>
<rect x="58" y="46" width="2" height="2"/>
<rect x="54" y="46" width="2" height="2"/>
<rect x="58" y="58" width="2" height="2"/>
<rect x="54" y="58" width="2" height="2"/>
<rect x="50" y="58" width="2" height="2"/>
<rect x="58" y="54" width="2" height="2"/>
<rect x="54" y="54" width="2" height="2"/>
<rect x="62" width="2" height="2"/>
<rect x="58" width="2" height="2"/>
<rect x="54" width="2" height="2"/>
<rect x="62" y="4" width="2" height="2"/>
<rect x="58" y="4" width="2" height="2"/>
<rect x="50" y="54" width="2" height="2"/>
<rect x="46" y="58" width="2" height="2"/>
<rect x="46" y="54" width="2" height="2"/>
<rect x="14" y="11" width="2" height="2"/>
</svg>
